<svg version="1.1" id="Layer_1" xmlns="http://www.w3.org/2000/svg" xmlns:xlink="http://www.w3.org/1999/xlink" x="0px" y="0px"
	 width="100%" viewBox="0 0 512 512" enable-background="new 0 0 512 512" xml:space="preserve">
<path fill="#47704C" opacity="1.000000" stroke="none" 
	d="
M353.000000,513.000000 
	C235.361923,513.000000 118.223839,513.000000 1.042876,513.000000 
	C1.042876,342.403564 1.042876,171.807114 1.042876,1.105330 
	C171.554749,1.105330 342.109589,1.105330 512.832214,1.105330 
	C512.832214,171.666534 512.832214,342.333252 512.832214,513.000000 
	C459.807037,513.000000 406.653534,513.000000 353.000000,513.000000 
M94.000145,228.376770 
	C96.011154,240.047592 97.102493,251.971191 100.226067,263.336243 
	C106.580307,286.455902 118.609138,306.254578 137.255768,321.897125 
	C164.965164,345.142303 197.417297,351.941193 232.244720,348.731049 
	C258.677216,346.294678 280.903259,334.121246 299.577423,315.170929 
	C303.430298,311.261108 302.928925,308.756348 299.825287,305.323456 
	C290.941406,295.497162 281.959686,285.751038 273.372528,275.670044 
	C270.981720,272.863342 269.856445,272.739136 267.207336,275.166656 
	C258.342346,283.290100 248.431015,289.684235 236.434891,292.274261 
	C221.122589,295.580200 206.323471,295.105011 192.266403,287.145844 
	C178.377029,279.281616 170.091690,267.044250 165.059464,252.435837 
	C157.666718,230.974808 156.791122,208.872177 161.349243,186.835724 
	C164.805740,170.125137 171.861481,154.978241 185.667770,143.732742 
	C201.931183,130.485855 220.101562,128.088287 239.773193,133.418091 
	C249.865555,136.152496 258.341827,141.798264 266.192810,149.417450 
	C270.724243,144.156525 274.966064,139.148132 279.300171,134.220917 
	C284.876709,127.881271 290.501617,121.583603 296.156158,115.313377 
	C299.235382,111.898857 299.640869,108.938194 295.499420,105.902649 
	C292.442413,103.661980 289.847229,100.802635 286.883057,98.422188 
	C267.157318,82.581001 244.138931,75.865257 219.313232,75.236290 
	C210.663498,75.017151 201.862000,76.512505 193.296143,78.114342 
	C173.085983,81.893700 155.021530,90.605766 139.519547,104.098244 
	C124.489716,117.179779 112.673615,132.759491 105.243935,151.437805 
	C98.852348,167.506317 94.769402,184.113480 94.061806,201.418777 
	C93.708183,210.066940 94.000099,218.741501 94.000145,228.376770 
M406.000000,408.500000 
	C406.000000,396.773285 406.000000,385.046570 406.000000,373.429382 
	C301.485382,373.429382 197.978851,373.429382 94.412964,373.429382 
	C94.412964,396.739990 94.412964,419.618805 94.412964,442.658997 
	C198.334091,442.658997 301.841980,442.658997 406.000000,442.658997 
	C406.000000,431.386230 406.000000,420.443115 406.000000,408.500000 
z"/>
<path fill="#000000" opacity="1.000000" stroke="none" 
	d="
M94.000092,227.890442 
	C94.000099,218.741501 93.708183,210.066940 94.061806,201.418777 
	C94.769402,184.113480 98.852348,167.506317 105.243935,151.437805 
	C112.673615,132.759491 124.489716,117.179779 139.519547,104.098244 
	C155.021530,90.605766 173.085983,81.893700 193.296143,78.114342 
	C201.862000,76.512505 210.663498,75.017151 219.313232,75.236290 
	C244.138931,75.865257 267.157318,82.581001 286.883057,98.422188 
	C289.847229,100.802635 292.442413,103.661980 295.499420,105.902649 
	C299.640869,108.938194 299.235382,111.898857 296.156158,115.313377 
	C290.501617,121.583603 284.876709,127.881271 279.300171,134.220917 
	C274.966064,139.148132 270.724243,144.156525 266.192810,149.417450 
	C258.341827,141.798264 249.865555,136.152496 239.773193,133.418091 
	C220.101562,128.088287 201.931183,130.485855 185.667770,143.732742 
	C171.861481,154.978241 164.805740,170.125137 161.349243,186.835724 
	C156.791122,208.872177 157.666718,230.974808 165.059464,252.435837 
	C170.091690,267.044250 178.377029,279.281616 192.266403,287.145844 
	C206.323471,295.105011 221.122589,295.580200 236.434891,292.274261 
	C248.431015,289.684235 258.342346,283.290100 267.207336,275.166656 
	C269.856445,272.739136 270.981720,272.863342 273.372528,275.670044 
	C281.959686,285.751038 290.941406,295.497162 299.825287,305.323456 
	C302.928925,308.756348 303.430298,311.261108 299.577423,315.170929 
	C280.903259,334.121246 258.677216,346.294678 232.244720,348.731049 
	C197.417297,351.941193 164.965164,345.142303 137.255768,321.897125 
	C118.609138,306.254578 106.580307,286.455902 100.226067,263.336243 
	C97.102493,251.971191 96.011154,240.047592 94.000092,227.890442 
z"/>
<path fill="#000000" opacity="1.000000" stroke="none" 
	d="
M406.000000,409.000000 
	C406.000000,420.443115 406.000000,431.386230 406.000000,442.658997 
	C301.841980,442.658997 198.334091,442.658997 94.412964,442.658997 
	C94.412964,419.618805 94.412964,396.739990 94.412964,373.429382 
	C197.978851,373.429382 301.485382,373.429382 406.000000,373.429382 
	C406.000000,385.046570 406.000000,396.773285 406.000000,409.000000 
z"/>
</svg>